# xmcd
#
# Track frame offsets:
#	150
#	11262
#	22921
#	34837
#	45847
#	57810
#	67188
#	76976
#	89055
#	98376
#	109299
#	119996
#
# Disc length: 1768 seconds
#
# Revision: 1
# Processed by: cddbd v1.5.1PL0 Copyright (c) Steve Scherf et al.
# Submitted via: audiograbber 1.83.01
#
DISCID=9306e60c
DTITLE=Ralph Stanley - The Stanley Sound Today
DYEAR=1900
DGENRE=
TTITLE0=Lonesome Here Without You
TTITLE1=Your Wories And Troubles Are Mine
TTITLE2=Could You Love Me One More Time
TTITLE3=Jealousy
TTITLE4=How Could I Dream Such A Dram
TTITLE5=Tennesse Truck Driving Man
TTITLE6=The Letter I Neve Mailed
TTITLE7=No Schoolbus In Heaven
TTITLE8=Dixieland
TTITLE9=Jimmie Brown The Newsboy
TTITLE10=Sitting On Top Of The World
TTITLE11=The Darkest Hour
EXTD=
EXTT0=
EXTT1=
EXTT2=
EXTT3=
EXTT4=
EXTT5=
EXTT6=
EXTT7=
EXTT8=
EXTT9=
EXTT10=
EXTT11=
PLAYORDER=
